<svg xmlns="http://www.w3.org/2000/svg" width="1010" height="770.564" viewBox="0 0 1010 770.564"><defs><style>.a{fill:#ff6584;}.b{fill:#f2f2f2;}.c{fill:#3f3d56;}.d{fill:#e6e6e6;}.e{fill:#ccc;}.f{fill:#ffc222;}</style></defs><g transform="translate(0 0)"><circle class="a" cx="64" cy="64" r="64" transform="translate(80.272 327)"/><path class="b" d="M370.337,817.218h-.065a8.51,8.51,0,0,1-8.5-8.5v-499a8.51,8.51,0,0,1,8.5-8.5h420a8.509,8.509,0,0,1,8.5,8.5v388a8.509,8.509,0,0,1-8.434,8.5Z" transform="translate(-95 -64.718)"/><path class="c" d="M680.772,230.718h-195v-113a9.01,9.01,0,0,1,9-9h177a9.01,9.01,0,0,1,9,9Zm-193-2h191v-111a7.008,7.008,0,0,0-7-7h-177a7.008,7.008,0,0,0-7,7Z" transform="translate(-95 -64.718)"/><path class="d" d="M446.272,87h84a8,8,0,0,1,8,8V215h-100V95A8,8,0,0,1,446.272,87Z"/><path class="c" d="M557.772,110.718h-41v-41a5.006,5.006,0,0,1,5-5h31a5.006,5.006,0,0,1,5,5Zm-39-2h37v-39a3,3,0,0,0-3-3h-31a3,3,0,0,0-3,3Z" transform="translate(-95 -64.718)"/><path class="c" d="M894.682,713.558c-.4,0-.787,0-1.185-.01A101.522,101.522,0,0,1,826.6,687.4q-1.019-.927-2.021-1.879l-.31-.3V493.574l.1-.2c.662-1.4,1.333-2.787,2-4.17,20.8-42.229,45.059-65.483,68.31-65.483,33.529,0,59.534,45.994,72.05,73.41,17.4,38.124,29.56,85.364,29.56,114.88a101.576,101.576,0,0,1-100.449,101.54C895.469,713.558,895.07,713.558,894.682,713.558Zm-68.41-29.189c.554.523,1.114,1.04,1.673,1.55a99.531,99.531,0,0,0,65.588,25.629c.405.01.788,0,1.176.01.363,0,.735,0,1.1-.009,54.312-.6,98.486-45.256,98.486-99.54,0-29.26-12.081-76.159-29.38-114.05-12.317-26.979-37.819-72.24-70.23-72.24-22.448,0-46.07,22.857-66.513,64.362-.634,1.305-1.269,2.615-1.9,3.942Z" transform="translate(-95 -64.718)"/><path class="e" d="M894.677,834.806a1.15,1.15,0,0,1-1.151-1.15V598.787a1.151,1.151,0,0,1,2.3,0V833.656A1.151,1.151,0,0,1,894.677,834.806Z" transform="translate(-95 -64.718)"/><path class="e" d="M297.677,834.806a1.15,1.15,0,0,1-1.151-1.15V598.787a1.15,1.15,0,1,1,2.3,0V833.656a1.151,1.151,0,0,1-1.151,1.15Z" transform="translate(-95 -64.718)"/><path class="e" d="M894.678,642.669a1.148,1.148,0,0,1-.87-.4l-57.864-66.73a1.151,1.151,0,1,1,1.739-1.508l57.864,66.73a1.151,1.151,0,0,1-.869,1.9Z" transform="translate(-95 -64.718)"/><path class="e" d="M894.677,681.18a1.15,1.15,0,0,1-.814-1.964l32.879-32.88a1.15,1.15,0,1,1,1.627,1.627l-32.88,32.88a1.146,1.146,0,0,1-.813.337Z" transform="translate(-95 -64.718)"/><path class="c" d="M1001.12,835.282h-86v-1a43,43,0,1,1,86.005,0Zm-83.993-2h81.985a41,41,0,0,0-81.981,0Z" transform="translate(-95 -64.718)"/><path class="c" d="M958.121,809.875a1.135,1.135,0,0,0-1.135,1.135v12.059l-11.748-10.083a1.135,1.135,0,0,0-1.479,1.723l13.227,11.352v7.085a1.135,1.135,0,0,0,2.271,0V811.01a1.135,1.135,0,0,0-1.135-1.135Z" transform="translate(-95 -64.718)"/><path class="c" d="M280.124,835.282h-86v-1a43,43,0,1,1,86.005,0Zm-83.993-2h81.981a41,41,0,0,0-81.981,0Z" transform="translate(-95 -64.718)"/><path class="c" d="M237.121,809.875a1.135,1.135,0,0,0-1.135,1.135v12.059l-11.748-10.083a1.135,1.135,0,1,0-1.479,1.723l13.227,11.352v7.085a1.135,1.135,0,0,0,2.271,0V811.01a1.135,1.135,0,0,0-1.135-1.135Z" transform="translate(-95 -64.718)"/><path class="c" d="M298.682,713.558c-.4,0-.787,0-1.185-.01a101.581,101.581,0,0,1-100.435-101.54c0-29.517,12.156-76.757,29.561-114.88,12.517-27.416,38.523-73.41,72.059-73.41,13.813,0,27.722,7.873,41.342,23.4.675.766,1.352,1.554,2.019,2.362l.229.277V703.745l-.564.273c-.673.326-1.356.632-2.039.928a100.608,100.608,0,0,1-39.827,8.6C299.469,713.558,299.07,713.558,298.682,713.558Zm0-287.84c-32.417,0-57.922,45.261-70.239,72.24-17.3,37.89-29.381,84.789-29.381,114.05,0,54.275,44.174,98.928,98.471,99.54.4.01.782.013,1.175.01.363,0,.735,0,1.1-.009a98.655,98.655,0,0,0,39.061-8.435c.472-.2.94-.412,1.4-.628V450.479c-.579-.7-1.165-1.375-1.75-2.04C325.3,433.362,311.894,425.718,298.682,425.718Z" transform="translate(-95 -64.718)"/><path class="e" d="M298.678,642.669a1.148,1.148,0,0,1-.87-.4l-57.864-66.73a1.151,1.151,0,1,1,1.739-1.508l57.864,66.73a1.151,1.151,0,0,1-.869,1.9Z" transform="translate(-95 -64.718)"/><path class="e" d="M298.677,681.18a1.151,1.151,0,0,1-.813-1.964l32.879-32.88a1.15,1.15,0,1,1,1.627,1.627l-32.879,32.88a1.146,1.146,0,0,1-.814.337Z" transform="translate(-95 -64.718)"/><path class="c" d="M389.031,238.718l.74,1.46a4.423,4.423,0,0,1,.5,2.04v39.5h35v-39.5a4.423,4.423,0,0,1,.5-2.04l.74-1.46Zm34.24,3.5v37.5h-31v-37.5a6.277,6.277,0,0,0-.18-1.5h31.36a6.276,6.276,0,0,0-.179,1.5Zm9.76-3.5.74,1.46a4.423,4.423,0,0,1,.5,2.04v39.5h35v-39.5a4.423,4.423,0,0,1,.5-2.04l.74-1.46Zm34.24,3.5v37.5h-31v-37.5a6.278,6.278,0,0,0-.18-1.5h31.36a6.278,6.278,0,0,0-.179,1.5Zm9.76-3.5.74,1.46a4.423,4.423,0,0,1,.5,2.04v39.5h35v-39.5a4.423,4.423,0,0,1,.5-2.04l.74-1.46Zm34.24,3.5v37.5h-31v-37.5a6.278,6.278,0,0,0-.18-1.5h31.36a6.279,6.279,0,0,0-.179,1.5Zm9.76-3.5.74,1.46a4.422,4.422,0,0,1,.5,2.04v39.5h35v-39.5a4.423,4.423,0,0,1,.5-2.04l.74-1.46Zm34.24,3.5v37.5h-31v-37.5a6.277,6.277,0,0,0-.18-1.5h31.36a6.279,6.279,0,0,0-.179,1.5Zm9.76-3.5.74,1.46a4.423,4.423,0,0,1,.5,2.04v39.5h35v-39.5a4.424,4.424,0,0,1,.5-2.04l.74-1.46Zm34.24,3.5v37.5h-31v-37.5a6.277,6.277,0,0,0-.18-1.5h31.36a6.282,6.282,0,0,0-.179,1.5Zm9.76-3.5.74,1.46a4.423,4.423,0,0,1,.5,2.04v39.5h35v-39.5a4.423,4.423,0,0,1,.5-2.04l.74-1.46Zm34.24,3.5v37.5h-31v-37.5a6.277,6.277,0,0,0-.18-1.5h31.36a6.276,6.276,0,0,0-.179,1.5Zm9.76-3.5.74,1.46a4.422,4.422,0,0,1,.5,2.04v39.5h35v-39.5a4.424,4.424,0,0,1,.5-2.04l.74-1.46Zm34.24,3.5v37.5h-31v-37.5a6.277,6.277,0,0,0-.18-1.5h31.36a6.279,6.279,0,0,0-.179,1.5Zm9.76-3.5.74,1.46a4.422,4.422,0,0,1,.5,2.04v39.5h35v-39.5a4.423,4.423,0,0,1,.5-2.04l.74-1.46Zm34.24,3.5v37.5h-31v-37.5a6.277,6.277,0,0,0-.18-1.5h31.36a6.279,6.279,0,0,0-.179,1.5Zm9.76-3.5.74,1.46a4.423,4.423,0,0,1,.5,2.04v39.5h35v-39.5a4.424,4.424,0,0,1,.5-2.04l.74-1.46Zm34.24,3.5v37.5h-31v-37.5a6.277,6.277,0,0,0-.18-1.5h31.36a6.276,6.276,0,0,0-.179,1.5Zm-34.24-3.5.74,1.46a4.423,4.423,0,0,1,.5,2.04v39.5h35v-39.5a4.424,4.424,0,0,1,.5-2.04l.74-1.46Zm34.24,3.5v37.5h-31v-37.5a6.277,6.277,0,0,0-.18-1.5h31.36a6.276,6.276,0,0,0-.179,1.5Zm-78.24-3.5.74,1.46a4.422,4.422,0,0,1,.5,2.04v39.5h35v-39.5a4.424,4.424,0,0,1,.5-2.04l.74-1.46Zm34.24,3.5v37.5h-31v-37.5a6.274,6.274,0,0,0-.18-1.5h31.36a6.276,6.276,0,0,0-.179,1.5Zm-78.24-3.5.74,1.46a4.423,4.423,0,0,1,.5,2.04v39.5h35v-39.5a4.424,4.424,0,0,1,.5-2.04l.74-1.46Zm34.24,3.5v37.5h-31v-37.5a6.277,6.277,0,0,0-.18-1.5h31.36a6.276,6.276,0,0,0-.179,1.5Zm-78.24-3.5.74,1.46a4.423,4.423,0,0,1,.5,2.04v39.5h35v-39.5a4.424,4.424,0,0,1,.5-2.04l.74-1.46Zm34.24,3.5v37.5h-31v-37.5a6.277,6.277,0,0,0-.18-1.5h31.36a6.276,6.276,0,0,0-.179,1.5Zm-78.24-3.5.74,1.46a4.422,4.422,0,0,1,.5,2.04v39.5h35v-39.5a4.424,4.424,0,0,1,.5-2.04l.74-1.46Zm34.24,3.5v37.5h-31v-37.5a6.277,6.277,0,0,0-.18-1.5h31.36a6.276,6.276,0,0,0-.179,1.5Zm-78.24-3.5.74,1.46a4.424,4.424,0,0,1,.5,2.04v39.5h35v-39.5a4.424,4.424,0,0,1,.5-2.04l.74-1.46Zm34.24,3.5v37.5h-31v-37.5a6.277,6.277,0,0,0-.18-1.5h31.36a6.276,6.276,0,0,0-.179,1.5Zm-78.24-3.5.74,1.46a4.423,4.423,0,0,1,.5,2.04v39.5h35v-39.5a4.424,4.424,0,0,1,.5-2.04l.74-1.46Zm34.24,3.5v37.5h-31v-37.5a6.278,6.278,0,0,0-.18-1.5h31.36a6.277,6.277,0,0,0-.179,1.5Zm-78.24-3.5.74,1.46a4.423,4.423,0,0,1,.5,2.04v39.5h35v-39.5a4.424,4.424,0,0,1,.5-2.04l.74-1.46Zm34.24,3.5v37.5h-31v-37.5a6.278,6.278,0,0,0-.18-1.5h31.36a6.278,6.278,0,0,0-.179,1.5Zm-78.24-3.5.74,1.46a4.423,4.423,0,0,1,.5,2.04v39.5h35v-39.5a4.423,4.423,0,0,1,.5-2.04l.74-1.46Zm34.24,3.5v37.5h-31v-37.5a6.278,6.278,0,0,0-.18-1.5h31.36a6.278,6.278,0,0,0-.179,1.5Zm317.76-3.5.74,1.46a4.423,4.423,0,0,1,.5,2.04v39.5h35v-39.5a4.423,4.423,0,0,1,.5-2.04l.74-1.46Zm34.24,3.5v37.5h-31v-37.5a6.277,6.277,0,0,0-.18-1.5h31.36a6.276,6.276,0,0,0-.179,1.5Zm-78.24-3.5.74,1.46a4.423,4.423,0,0,1,.5,2.04v39.5h35v-39.5a4.423,4.423,0,0,1,.5-2.04l.74-1.46Zm34.24,3.5v37.5h-31v-37.5a6.277,6.277,0,0,0-.18-1.5h31.36a6.276,6.276,0,0,0-.179,1.5Zm-78.24-3.5.74,1.46a4.422,4.422,0,0,1,.5,2.04v39.5h35v-39.5a4.423,4.423,0,0,1,.5-2.04l.74-1.46Zm34.24,3.5v37.5h-31v-37.5a6.277,6.277,0,0,0-.18-1.5h31.36a6.276,6.276,0,0,0-.179,1.5Zm-78.24-3.5.74,1.46a4.423,4.423,0,0,1,.5,2.04v39.5h35v-39.5a4.423,4.423,0,0,1,.5-2.04l.74-1.46Zm34.24,3.5v37.5h-31v-37.5a6.277,6.277,0,0,0-.18-1.5h31.36a6.276,6.276,0,0,0-.179,1.5Zm-78.24-3.5.74,1.46a4.423,4.423,0,0,1,.5,2.04v39.5h35v-39.5a4.423,4.423,0,0,1,.5-2.04l.74-1.46Zm34.24,3.5v37.5h-31v-37.5a6.277,6.277,0,0,0-.18-1.5h31.36a6.279,6.279,0,0,0-.179,1.5Zm-78.24-3.5.74,1.46a4.422,4.422,0,0,1,.5,2.04v39.5h35v-39.5a4.423,4.423,0,0,1,.5-2.04l.74-1.46Zm34.24,3.5v37.5h-31v-37.5a6.277,6.277,0,0,0-.18-1.5h31.36a6.279,6.279,0,0,0-.179,1.5Zm-78.24-3.5.74,1.46a4.423,4.423,0,0,1,.5,2.04v39.5h35v-39.5a4.424,4.424,0,0,1,.5-2.04l.74-1.46Zm34.24,3.5v37.5h-31v-37.5a6.278,6.278,0,0,0-.18-1.5h31.36a6.278,6.278,0,0,0-.179,1.5Zm-78.24-3.5.74,1.46a4.423,4.423,0,0,1,.5,2.04v39.5h35v-39.5a4.423,4.423,0,0,1,.5-2.04l.74-1.46Zm34.24,3.5v37.5h-31v-37.5a6.278,6.278,0,0,0-.18-1.5h31.36a6.278,6.278,0,0,0-.179,1.5Zm-78.24-3.5.74,1.46a4.423,4.423,0,0,1,.5,2.04v39.5h35v-39.5a4.423,4.423,0,0,1,.5-2.04l.74-1.46Zm34.24,3.5v37.5h-31v-37.5a6.277,6.277,0,0,0-.18-1.5h31.36a6.278,6.278,0,0,0-.179,1.5Zm317.76-3.5.74,1.46a4.422,4.422,0,0,1,.5,2.04v39.5h35v-39.5a4.424,4.424,0,0,1,.5-2.04l.74-1.46Zm34.24,3.5v37.5h-31v-37.5a6.277,6.277,0,0,0-.18-1.5h31.36a6.276,6.276,0,0,0-.179,1.5Zm-78.24-3.5.74,1.46a4.423,4.423,0,0,1,.5,2.04v39.5h35v-39.5a4.424,4.424,0,0,1,.5-2.04l.74-1.46Zm34.24,3.5v37.5h-31v-37.5a6.277,6.277,0,0,0-.18-1.5h31.36a6.279,6.279,0,0,0-.179,1.5Zm-78.24-3.5.74,1.46a4.424,4.424,0,0,1,.5,2.04v39.5h35v-39.5a4.424,4.424,0,0,1,.5-2.04l.74-1.46Zm34.24,3.5v37.5h-31v-37.5a6.277,6.277,0,0,0-.18-1.5h31.36a6.279,6.279,0,0,0-.179,1.5Zm-78.24-3.5.74,1.46a4.422,4.422,0,0,1,.5,2.04v39.5h35v-39.5a4.424,4.424,0,0,1,.5-2.04l.74-1.46Zm34.24,3.5v37.5h-31v-37.5a6.277,6.277,0,0,0-.18-1.5h31.36a6.279,6.279,0,0,0-.179,1.5Zm-78.24-3.5.74,1.46a4.423,4.423,0,0,1,.5,2.04v39.5h35v-39.5a4.424,4.424,0,0,1,.5-2.04l.74-1.46Zm34.24,3.5v37.5h-31v-37.5a6.277,6.277,0,0,0-.18-1.5h31.36a6.279,6.279,0,0,0-.179,1.5Zm-78.24-3.5.74,1.46a4.424,4.424,0,0,1,.5,2.04v39.5h35v-39.5a4.424,4.424,0,0,1,.5-2.04l.74-1.46Zm34.24,3.5v37.5h-31v-37.5a6.277,6.277,0,0,0-.18-1.5h31.36a6.279,6.279,0,0,0-.179,1.5Zm-78.24-3.5.74,1.46a4.423,4.423,0,0,1,.5,2.04v39.5h35v-39.5a4.424,4.424,0,0,1,.5-2.04l.74-1.46Zm34.24,3.5v37.5h-31v-37.5a6.277,6.277,0,0,0-.18-1.5h31.36a6.278,6.278,0,0,0-.179,1.5Zm-78.24-3.5.74,1.46a4.423,4.423,0,0,1,.5,2.04v39.5h35v-39.5a4.423,4.423,0,0,1,.5-2.04l.74-1.46Zm34.24,3.5v37.5h-31v-37.5a6.278,6.278,0,0,0-.18-1.5h31.36a6.278,6.278,0,0,0-.179,1.5Zm-78.24-3.5.74,1.46a4.423,4.423,0,0,1,.5,2.04v39.5h35v-39.5a4.423,4.423,0,0,1,.5-2.04l.74-1.46Zm34.24,3.5v37.5h-31v-37.5a6.277,6.277,0,0,0-.18-1.5h31.36a6.278,6.278,0,0,0-.179,1.5Zm317.76-3.5.74,1.46a4.424,4.424,0,0,1,.5,2.04v39.5h35v-39.5a4.423,4.423,0,0,1,.5-2.04l.74-1.46Zm34.24,3.5v37.5h-31v-37.5a6.277,6.277,0,0,0-.18-1.5h31.36a6.279,6.279,0,0,0-.179,1.5Zm-78.24-3.5.74,1.46a4.422,4.422,0,0,1,.5,2.04v39.5h35v-39.5a4.423,4.423,0,0,1,.5-2.04l.74-1.46Zm34.24,3.5v37.5h-31v-37.5a6.277,6.277,0,0,0-.18-1.5h31.36a6.279,6.279,0,0,0-.179,1.5Zm-78.24-3.5.74,1.46a4.423,4.423,0,0,1,.5,2.04v39.5h35v-39.5a4.423,4.423,0,0,1,.5-2.04l.74-1.46Zm34.24,3.5v37.5h-31v-37.5a6.277,6.277,0,0,0-.18-1.5h31.36a6.279,6.279,0,0,0-.179,1.5Zm-78.24-3.5.74,1.46a4.422,4.422,0,0,1,.5,2.04v39.5h35v-39.5a4.423,4.423,0,0,1,.5-2.04l.74-1.46Zm34.24,3.5v37.5h-31v-37.5a6.277,6.277,0,0,0-.18-1.5h31.36a6.279,6.279,0,0,0-.179,1.5Zm-78.24-3.5.74,1.46a4.423,4.423,0,0,1,.5,2.04v39.5h35v-39.5a4.423,4.423,0,0,1,.5-2.04l.74-1.46Zm34.24,3.5v37.5h-31v-37.5a6.277,6.277,0,0,0-.18-1.5h31.36a6.279,6.279,0,0,0-.179,1.5Zm-78.24-3.5.74,1.46a4.422,4.422,0,0,1,.5,2.04v39.5h35v-39.5a4.423,4.423,0,0,1,.5-2.04l.74-1.46Zm34.24,3.5v37.5h-31v-37.5a6.277,6.277,0,0,0-.18-1.5h31.36a6.279,6.279,0,0,0-.179,1.5Zm-78.24-3.5.74,1.46a4.423,4.423,0,0,1,.5,2.04v39.5h35v-39.5a4.424,4.424,0,0,1,.5-2.04l.74-1.46Zm34.24,3.5v37.5h-31v-37.5a6.277,6.277,0,0,0-.18-1.5h31.36a6.278,6.278,0,0,0-.179,1.5Zm-78.24-3.5.74,1.46a4.423,4.423,0,0,1,.5,2.04v39.5h35v-39.5a4.423,4.423,0,0,1,.5-2.04l.74-1.46Zm34.24,3.5v37.5h-31v-37.5a6.277,6.277,0,0,0-.18-1.5h31.36a6.278,6.278,0,0,0-.179,1.5Zm-78.24-3.5.74,1.46a4.423,4.423,0,0,1,.5,2.04v39.5h35v-39.5a4.423,4.423,0,0,1,.5-2.04l.74-1.46Zm34.24,3.5v37.5h-31v-37.5a6.278,6.278,0,0,0-.18-1.5h31.36a6.278,6.278,0,0,0-.179,1.5Zm317.76-3.5.74,1.46a4.423,4.423,0,0,1,.5,2.04v39.5h35v-39.5a4.424,4.424,0,0,1,.5-2.04l.74-1.46Zm34.24,3.5v37.5h-31v-37.5a6.277,6.277,0,0,0-.18-1.5h31.36a6.279,6.279,0,0,0-.18,1.5Zm-77.5-2.04a4.422,4.422,0,0,1,.5,2.04v39.5h35v-39.5a4.425,4.425,0,0,1,.5-2.04l.74-1.46H697.031Zm33.68.54a6.28,6.28,0,0,0-.18,1.5v37.5h-31v-37.5a6.277,6.277,0,0,0-.18-1.5Zm-77.68-.54a4.423,4.423,0,0,1,.5,2.04v39.5h35v-39.5a4.423,4.423,0,0,1,.5-2.04l.74-1.46H653.031Zm33.68.54a6.28,6.28,0,0,0-.18,1.5v37.5h-31v-37.5a6.277,6.277,0,0,0-.18-1.5Zm-77.68-.54a4.423,4.423,0,0,1,.5,2.04v39.5h35v-39.5a4.423,4.423,0,0,1,.5-2.04l.74-1.46H609.031Zm33.68.54a6.28,6.28,0,0,0-.18,1.5v37.5h-31v-37.5a6.277,6.277,0,0,0-.18-1.5Zm-77.68-.54a4.422,4.422,0,0,1,.5,2.04v39.5h35v-39.5a4.423,4.423,0,0,1,.5-2.04l.74-1.46H565.031Zm33.68.54a6.28,6.28,0,0,0-.18,1.5v37.5h-31v-37.5a6.277,6.277,0,0,0-.18-1.5Zm-77.68-.54a4.424,4.424,0,0,1,.5,2.04v39.5h35v-39.5a4.423,4.423,0,0,1,.5-2.04l.74-1.46H521.031Zm33.68.54a6.28,6.28,0,0,0-.18,1.5v37.5h-31v-37.5a6.277,6.277,0,0,0-.18-1.5Zm-77.68-.54a4.423,4.423,0,0,1,.5,2.04v39.5h35v-39.5a4.423,4.423,0,0,1,.5-2.04l.74-1.46H477.031Zm33.68.54a6.278,6.278,0,0,0-.18,1.5v37.5h-31v-37.5a6.277,6.277,0,0,0-.18-1.5Zm-77.68-.54a4.423,4.423,0,0,1,.5,2.04v39.5h35v-39.5a4.423,4.423,0,0,1,.5-2.04l.74-1.46H433.031Zm33.68.54a6.278,6.278,0,0,0-.18,1.5v37.5h-31v-37.5a6.277,6.277,0,0,0-.18-1.5Zm-77.68-.54a4.423,4.423,0,0,1,.5,2.04v39.5h35v-39.5a4.423,4.423,0,0,1,.5-2.04l.74-1.46H389.031Zm33.68.54a6.278,6.278,0,0,0-.18,1.5v37.5h-31v-37.5a6.277,6.277,0,0,0-.18-1.5Zm318.32-.54a4.423,4.423,0,0,1,.5,2.04v39.5h35v-39.5a4.424,4.424,0,0,1,.5-2.04l.74-1.46H741.031Zm33.68.54a6.28,6.28,0,0,0-.18,1.5v37.5h-31v-37.5a6.277,6.277,0,0,0-.18-1.5Zm-77.68-.54a4.423,4.423,0,0,1,.5,2.04v39.5h35v-39.5a4.424,4.424,0,0,1,.5-2.04l.74-1.46H697.031Zm33.68.54a6.28,6.28,0,0,0-.18,1.5v37.5h-31v-37.5a6.277,6.277,0,0,0-.18-1.5Zm-77.68-.54a4.422,4.422,0,0,1,.5,2.04v39.5h35v-39.5a4.424,4.424,0,0,1,.5-2.04l.74-1.46H653.031Zm33.68.54a6.28,6.28,0,0,0-.18,1.5v37.5h-31v-37.5a6.277,6.277,0,0,0-.18-1.5Zm-77.68-.54a4.423,4.423,0,0,1,.5,2.04v39.5h35v-39.5a4.424,4.424,0,0,1,.5-2.04l.74-1.46H609.031Zm33.68.54a6.28,6.28,0,0,0-.18,1.5v37.5h-31v-37.5a6.277,6.277,0,0,0-.18-1.5Zm-77.68-.54a4.423,4.423,0,0,1,.5,2.04v39.5h35v-39.5a4.424,4.424,0,0,1,.5-2.04l.74-1.46H565.031Zm33.68.54a6.28,6.28,0,0,0-.18,1.5v37.5h-31v-37.5a6.277,6.277,0,0,0-.18-1.5Zm-77.68-.54a4.422,4.422,0,0,1,.5,2.04v39.5h35v-39.5a4.424,4.424,0,0,1,.5-2.04l.74-1.46H521.031Zm33.68.54a6.28,6.28,0,0,0-.18,1.5v37.5h-31v-37.5a6.277,6.277,0,0,0-.18-1.5Zm-77.68-.54a4.423,4.423,0,0,1,.5,2.04v39.5h35v-39.5a4.424,4.424,0,0,1,.5-2.04l.74-1.46H477.031Zm33.68.54a6.278,6.278,0,0,0-.18,1.5v37.5h-31v-37.5a6.278,6.278,0,0,0-.18-1.5Zm-77.68-.54a4.423,4.423,0,0,1,.5,2.04v39.5h35v-39.5a4.423,4.423,0,0,1,.5-2.04l.74-1.46H433.031Zm33.68.54a6.278,6.278,0,0,0-.18,1.5v37.5h-31v-37.5a6.277,6.277,0,0,0-.18-1.5Zm-77.68-.54a4.423,4.423,0,0,1,.5,2.04v39.5h35v-39.5a4.423,4.423,0,0,1,.5-2.04l.74-1.46H389.031Zm33.68.54a6.278,6.278,0,0,0-.18,1.5v37.5h-31v-37.5a6.278,6.278,0,0,0-.18-1.5Zm393.82,47h-11.92a11.031,11.031,0,0,0-10.58-8h-6.5v-37.5a6.25,6.25,0,0,0-.45-2.35,5.989,5.989,0,0,0-3.05-11.15h-402a5.989,5.989,0,0,0-3.05,11.15,6.252,6.252,0,0,0-.45,2.35v37.5h-6.5a11.031,11.031,0,0,0-10.58,8h-12.92a9.013,9.013,0,0,0-9,9v528a9.019,9.019,0,0,0,9,9h468a9.013,9.013,0,0,0,9-9v-528a9.014,9.014,0,0,0-9-9Zm7,537a7,7,0,0,1-4.57,6.56,6.721,6.721,0,0,1-2.43.44h-468a6.723,6.723,0,0,1-2.43-.44,7.005,7.005,0,0,1-4.57-6.56v-528a7.008,7.008,0,0,1,7-7h14.52l.16-.8a9.032,9.032,0,0,1,8.82-7.2h8.5v-39.5a4.494,4.494,0,0,1,.64-2.31l.62-1.03-1.13-.42a3.989,3.989,0,0,1,1.37-7.74h402a3.989,3.989,0,0,1,1.37,7.74l-1.13.42.62,1.03a4.489,4.489,0,0,1,.64,2.31v39.5h8.5a9.031,9.031,0,0,1,8.82,7.2l.16.8h13.52a7.008,7.008,0,0,1,7,7Zm-435.24-586,.74,1.46a4.424,4.424,0,0,1,.5,2.04v39.5h35v-39.5a4.423,4.423,0,0,1,.5-2.04l.74-1.46Zm34.24,3.5v37.5h-31v-37.5a6.277,6.277,0,0,0-.18-1.5h31.36a6.278,6.278,0,0,0-.18,1.5Zm9.76-3.5.74,1.46a4.423,4.423,0,0,1,.5,2.04v39.5h35v-39.5a4.423,4.423,0,0,1,.5-2.04l.74-1.46Zm34.24,3.5v37.5h-31v-37.5a6.278,6.278,0,0,0-.18-1.5h31.36a6.278,6.278,0,0,0-.18,1.5Zm9.76-3.5.74,1.46a4.423,4.423,0,0,1,.5,2.04v39.5h35v-39.5a4.424,4.424,0,0,1,.5-2.04l.74-1.46Zm34.24,3.5v37.5h-31v-37.5a6.278,6.278,0,0,0-.18-1.5h31.36a6.28,6.28,0,0,0-.18,1.5Zm9.76-3.5.74,1.46a4.422,4.422,0,0,1,.5,2.04v39.5h35v-39.5a4.424,4.424,0,0,1,.5-2.04l.74-1.46Zm34.24,3.5v37.5h-31v-37.5a6.277,6.277,0,0,0-.18-1.5h31.36a6.28,6.28,0,0,0-.18,1.5Zm9.76-3.5.74,1.46a4.423,4.423,0,0,1,.5,2.04v39.5h35v-39.5a4.423,4.423,0,0,1,.5-2.04l.74-1.46Zm34.24,3.5v37.5h-31v-37.5a6.277,6.277,0,0,0-.18-1.5h31.36a6.273,6.273,0,0,0-.18,1.5Zm9.76-3.5.74,1.46a4.422,4.422,0,0,1,.5,2.04v39.5h35v-39.5a4.424,4.424,0,0,1,.5-2.04l.74-1.46Zm34.24,3.5v37.5h-31v-37.5a6.277,6.277,0,0,0-.18-1.5h31.36a6.28,6.28,0,0,0-.18,1.5Zm9.76-3.5.74,1.46a4.424,4.424,0,0,1,.5,2.04v39.5h35v-39.5a4.423,4.423,0,0,1,.5-2.04l.74-1.46Zm34.24,3.5v37.5h-31v-37.5a6.277,6.277,0,0,0-.18-1.5h31.36a6.28,6.28,0,0,0-.18,1.5Zm9.76-3.5.74,1.46a4.423,4.423,0,0,1,.5,2.04v39.5h35v-39.5a4.424,4.424,0,0,1,.5-2.04l.74-1.46Zm34.24,3.5v37.5h-31v-37.5a6.277,6.277,0,0,0-.18-1.5h31.36a6.273,6.273,0,0,0-.18,1.5Zm9.76-3.5.74,1.46a4.422,4.422,0,0,1,.5,2.04v39.5h35v-39.5a4.423,4.423,0,0,1,.5-2.04l.74-1.46Zm34.24,3.5v37.5h-31v-37.5a6.277,6.277,0,0,0-.18-1.5h31.36a6.28,6.28,0,0,0-.18,1.5Zm-386.24-3.5.74,1.46a4.423,4.423,0,0,1,.5,2.04v39.5h35v-39.5a4.423,4.423,0,0,1,.5-2.04l.74-1.46Zm34.24,3.5v37.5h-31v-37.5a6.278,6.278,0,0,0-.18-1.5h31.36a6.278,6.278,0,0,0-.18,1.5Zm9.76-3.5.74,1.46a4.423,4.423,0,0,1,.5,2.04v39.5h35v-39.5a4.423,4.423,0,0,1,.5-2.04l.74-1.46Zm34.24,3.5v37.5h-31v-37.5a6.278,6.278,0,0,0-.18-1.5h31.36a6.278,6.278,0,0,0-.18,1.5Zm9.76-3.5.74,1.46a4.424,4.424,0,0,1,.5,2.04v39.5h35v-39.5a4.423,4.423,0,0,1,.5-2.04l.74-1.46Zm34.24,3.5v37.5h-31v-37.5a6.277,6.277,0,0,0-.18-1.5h31.36a6.279,6.279,0,0,0-.18,1.5Zm9.76-3.5.74,1.46a4.424,4.424,0,0,1,.5,2.04v39.5h35v-39.5a4.423,4.423,0,0,1,.5-2.04l.74-1.46Zm34.24,3.5v37.5h-31v-37.5a6.277,6.277,0,0,0-.18-1.5h31.36a6.28,6.28,0,0,0-.18,1.5Zm9.76-3.5.74,1.46a4.423,4.423,0,0,1,.5,2.04v39.5h35v-39.5a4.424,4.424,0,0,1,.5-2.04l.74-1.46Zm34.24,3.5v37.5h-31v-37.5a6.277,6.277,0,0,0-.18-1.5h31.36a6.273,6.273,0,0,0-.18,1.5Zm9.76-3.5.74,1.46a4.423,4.423,0,0,1,.5,2.04v39.5h35v-39.5a4.423,4.423,0,0,1,.5-2.04l.74-1.46Zm34.24,3.5v37.5h-31v-37.5a6.277,6.277,0,0,0-.18-1.5h31.36a6.28,6.28,0,0,0-.18,1.5Zm9.76-3.5.74,1.46a4.422,4.422,0,0,1,.5,2.04v39.5h35v-39.5a4.424,4.424,0,0,1,.5-2.04l.74-1.46Zm34.24,3.5v37.5h-31v-37.5a6.277,6.277,0,0,0-.18-1.5h31.36a6.279,6.279,0,0,0-.18,1.5Zm9.76-3.5.74,1.46a4.424,4.424,0,0,1,.5,2.04v39.5h35v-39.5a4.423,4.423,0,0,1,.5-2.04l.74-1.46Zm34.24,3.5v37.5h-31v-37.5a6.277,6.277,0,0,0-.18-1.5h31.36a6.273,6.273,0,0,0-.18,1.5Zm9.76-3.5.74,1.46a4.423,4.423,0,0,1,.5,2.04v39.5h35v-39.5a4.424,4.424,0,0,1,.5-2.04l.74-1.46Zm34.24,3.5v37.5h-31v-37.5a6.277,6.277,0,0,0-.18-1.5h31.36a6.279,6.279,0,0,0-.18,1.5Zm-386.24-3.5.74,1.46a4.424,4.424,0,0,1,.5,2.04v39.5h35v-39.5a4.423,4.423,0,0,1,.5-2.04l.74-1.46Zm34.24,3.5v37.5h-31v-37.5a6.277,6.277,0,0,0-.18-1.5h31.36a6.276,6.276,0,0,0-.18,1.5Zm9.76-3.5.74,1.46a4.423,4.423,0,0,1,.5,2.04v39.5h35v-39.5a4.423,4.423,0,0,1,.5-2.04l.74-1.46Zm34.24,3.5v37.5h-31v-37.5a6.277,6.277,0,0,0-.18-1.5h31.36a6.278,6.278,0,0,0-.18,1.5Zm9.76-3.5.74,1.46a4.424,4.424,0,0,1,.5,2.04v39.5h35v-39.5a4.424,4.424,0,0,1,.5-2.04l.74-1.46Zm34.24,3.5v37.5h-31v-37.5a6.277,6.277,0,0,0-.18-1.5h31.36a6.278,6.278,0,0,0-.18,1.5Zm9.76-3.5.74,1.46a4.422,4.422,0,0,1,.5,2.04v39.5h35v-39.5a4.424,4.424,0,0,1,.5-2.04l.74-1.46Zm34.24,3.5v37.5h-31v-37.5a6.277,6.277,0,0,0-.18-1.5h31.36a6.279,6.279,0,0,0-.18,1.5Zm9.76-3.5.74,1.46a4.424,4.424,0,0,1,.5,2.04v39.5h35v-39.5a4.423,4.423,0,0,1,.5-2.04l.74-1.46Zm34.24,3.5v37.5h-31v-37.5a6.274,6.274,0,0,0-.18-1.5h31.36a6.273,6.273,0,0,0-.18,1.5Zm9.76-3.5.74,1.46a4.423,4.423,0,0,1,.5,2.04v39.5h35v-39.5a4.423,4.423,0,0,1,.5-2.04l.74-1.46Zm34.24,3.5v37.5h-31v-37.5a6.277,6.277,0,0,0-.18-1.5h31.36a6.279,6.279,0,0,0-.18,1.5Zm9.76-3.5.74,1.46a4.423,4.423,0,0,1,.5,2.04v39.5h35v-39.5a4.423,4.423,0,0,1,.5-2.04l.74-1.46Zm34.24,3.5v37.5h-31v-37.5a6.277,6.277,0,0,0-.18-1.5h31.36a6.279,6.279,0,0,0-.18,1.5Zm9.76-3.5.74,1.46a4.422,4.422,0,0,1,.5,2.04v39.5h35v-39.5a4.424,4.424,0,0,1,.5-2.04l.74-1.46Zm34.24,3.5v37.5h-31v-37.5a6.277,6.277,0,0,0-.18-1.5h31.36a6.283,6.283,0,0,0-.18,1.5Zm9.76-3.5.74,1.46a4.424,4.424,0,0,1,.5,2.04v39.5h35v-39.5a4.423,4.423,0,0,1,.5-2.04l.74-1.46Zm34.24,3.5v37.5h-31v-37.5a6.277,6.277,0,0,0-.18-1.5h31.36a6.279,6.279,0,0,0-.179,1.5Zm-386.24-3.5.74,1.46a4.423,4.423,0,0,1,.5,2.04v39.5h35v-39.5a4.423,4.423,0,0,1,.5-2.04l.74-1.46Zm34.24,3.5v37.5h-31v-37.5a6.277,6.277,0,0,0-.18-1.5h31.36a6.276,6.276,0,0,0-.18,1.5Zm9.76-3.5.74,1.46a4.423,4.423,0,0,1,.5,2.04v39.5h35v-39.5a4.423,4.423,0,0,1,.5-2.04l.74-1.46Zm34.24,3.5v37.5h-31v-37.5a6.277,6.277,0,0,0-.18-1.5h31.36a6.278,6.278,0,0,0-.18,1.5Zm9.76-3.5.74,1.46a4.423,4.423,0,0,1,.5,2.04v39.5h35v-39.5a4.423,4.423,0,0,1,.5-2.04l.74-1.46Zm34.24,3.5v37.5h-31v-37.5a6.277,6.277,0,0,0-.18-1.5h31.36a6.278,6.278,0,0,0-.18,1.5Zm9.76-3.5.74,1.46a4.424,4.424,0,0,1,.5,2.04v39.5h35v-39.5a4.423,4.423,0,0,1,.5-2.04l.74-1.46Zm34.24,3.5v37.5h-31v-37.5a6.277,6.277,0,0,0-.18-1.5h31.36a6.279,6.279,0,0,0-.18,1.5Zm9.76-3.5.74,1.46a4.422,4.422,0,0,1,.5,2.04v39.5h35v-39.5a4.424,4.424,0,0,1,.5-2.04l.74-1.46Zm34.24,3.5v37.5h-31v-37.5a6.277,6.277,0,0,0-.18-1.5h31.36a6.273,6.273,0,0,0-.18,1.5Zm9.76-3.5.74,1.46a4.422,4.422,0,0,1,.5,2.04v39.5h35v-39.5a4.423,4.423,0,0,1,.5-2.04l.74-1.46Zm34.24,3.5v37.5h-31v-37.5a6.277,6.277,0,0,0-.18-1.5h31.36a6.279,6.279,0,0,0-.179,1.5Zm9.76-3.5.74,1.46a4.423,4.423,0,0,1,.5,2.04v39.5h35v-39.5a4.424,4.424,0,0,1,.5-2.04l.74-1.46Zm34.24,3.5v37.5h-31v-37.5a6.277,6.277,0,0,0-.18-1.5h31.36a6.279,6.279,0,0,0-.179,1.5Zm9.76-3.5.74,1.46a4.423,4.423,0,0,1,.5,2.04v39.5h35v-39.5a4.423,4.423,0,0,1,.5-2.04l.74-1.46Zm34.24,3.5v37.5h-31v-37.5a6.277,6.277,0,0,0-.18-1.5h31.36a6.282,6.282,0,0,0-.179,1.5Zm9.76-3.5.74,1.46a4.422,4.422,0,0,1,.5,2.04v39.5h35v-39.5a4.424,4.424,0,0,1,.5-2.04l.74-1.46Zm34.24,3.5v37.5h-31v-37.5a6.277,6.277,0,0,0-.18-1.5h31.36a6.276,6.276,0,0,0-.179,1.5Z" transform="translate(-95 -64.718)"/><path class="f" d="M507.924,413.718H434.181a5.865,5.865,0,0,1-5.858-5.858V368.576a5.865,5.865,0,0,1,5.858-5.858h73.743a5.865,5.865,0,0,1,5.858,5.858V407.86a5.865,5.865,0,0,1-5.858,5.858Z" transform="translate(-95 -64.718)"/><path class="f" d="M620.143,413.718H546.4a5.865,5.865,0,0,1-5.858-5.858V368.576a5.865,5.865,0,0,1,5.858-5.858h73.743A5.865,5.865,0,0,1,626,368.576V407.86a5.865,5.865,0,0,1-5.858,5.858Z" transform="translate(-95 -64.718)"/><path class="f" d="M732.363,413.718H658.62a5.865,5.865,0,0,1-5.858-5.858V368.576a5.865,5.865,0,0,1,5.858-5.858h73.743a5.865,5.865,0,0,1,5.858,5.858V407.86a5.865,5.865,0,0,1-5.858,5.858Z" transform="translate(-95 -64.718)"/><path class="f" d="M507.924,544.718H434.181a5.865,5.865,0,0,1-5.858-5.858V499.576a5.865,5.865,0,0,1,5.858-5.858h73.743a5.865,5.865,0,0,1,5.858,5.858V538.86A5.865,5.865,0,0,1,507.924,544.718Z" transform="translate(-95 -64.718)"/><path class="f" d="M620.143,544.718H546.4a5.865,5.865,0,0,1-5.858-5.858V499.576a5.865,5.865,0,0,1,5.858-5.858h73.743A5.865,5.865,0,0,1,626,499.576V538.86a5.865,5.865,0,0,1-5.858,5.858Z" transform="translate(-95 -64.718)"/><path class="f" d="M732.363,544.718H658.62a5.865,5.865,0,0,1-5.858-5.858V499.576a5.865,5.865,0,0,1,5.858-5.858h73.743a5.865,5.865,0,0,1,5.858,5.858V538.86a5.865,5.865,0,0,1-5.858,5.858Z" transform="translate(-95 -64.718)"/><path class="f" d="M507.924,675.718H434.181a5.865,5.865,0,0,1-5.858-5.858V630.576a5.865,5.865,0,0,1,5.858-5.858h73.743a5.865,5.865,0,0,1,5.858,5.858V669.86A5.865,5.865,0,0,1,507.924,675.718Z" transform="translate(-95 -64.718)"/><path class="f" d="M620.143,675.718H546.4a5.865,5.865,0,0,1-5.858-5.858V630.576a5.865,5.865,0,0,1,5.858-5.858h73.743A5.864,5.864,0,0,1,626,630.576V669.86a5.865,5.865,0,0,1-5.858,5.858Z" transform="translate(-95 -64.718)"/><path class="f" d="M732.363,675.718H658.62a5.865,5.865,0,0,1-5.858-5.858V630.576a5.865,5.865,0,0,1,5.858-5.858h73.743a5.865,5.865,0,0,1,5.858,5.858V669.86a5.865,5.865,0,0,1-5.858,5.858Z" transform="translate(-95 -64.718)"/><path class="c" d="M495.985,418.759H410.558a7.8,7.8,0,0,1-7.786-7.787V365.464a7.8,7.8,0,0,1,7.786-7.787h85.427a7.8,7.8,0,0,1,7.786,7.787v45.508a7.8,7.8,0,0,1-7.787,7.787Zm-85.427-59.081a5.793,5.793,0,0,0-5.786,5.787v45.508a5.793,5.793,0,0,0,5.786,5.787h85.427a5.793,5.793,0,0,0,5.786-5.787V365.464a5.793,5.793,0,0,0-5.786-5.787Z" transform="translate(-95 -64.718)"/><path class="c" d="M625.985,418.759H540.558a7.8,7.8,0,0,1-7.786-7.787V365.464a7.8,7.8,0,0,1,7.786-7.787h85.427a7.8,7.8,0,0,1,7.786,7.787v45.508a7.8,7.8,0,0,1-7.787,7.787Zm-85.427-59.081a5.793,5.793,0,0,0-5.786,5.787v45.508a5.793,5.793,0,0,0,5.786,5.787h85.427a5.793,5.793,0,0,0,5.786-5.787V365.464a5.793,5.793,0,0,0-5.786-5.787Z" transform="translate(-95 -64.718)"/><path class="c" d="M755.985,418.759H670.558a7.8,7.8,0,0,1-7.786-7.787V365.464a7.8,7.8,0,0,1,7.786-7.787h85.427a7.8,7.8,0,0,1,7.786,7.787v45.508A7.8,7.8,0,0,1,755.985,418.759Zm-85.427-59.081a5.793,5.793,0,0,0-5.786,5.787v45.508a5.793,5.793,0,0,0,5.786,5.787h85.427a5.793,5.793,0,0,0,5.786-5.787V365.464a5.793,5.793,0,0,0-5.786-5.787Z" transform="translate(-95 -64.718)"/><path class="c" d="M495.985,549.759H410.558a7.8,7.8,0,0,1-7.786-7.787V496.464a7.8,7.8,0,0,1,7.786-7.787h85.427a7.8,7.8,0,0,1,7.786,7.787v45.508a7.8,7.8,0,0,1-7.787,7.787Zm-85.427-59.081a5.793,5.793,0,0,0-5.786,5.787v45.508a5.793,5.793,0,0,0,5.786,5.787h85.427a5.793,5.793,0,0,0,5.786-5.787V496.464a5.793,5.793,0,0,0-5.786-5.787Z" transform="translate(-95 -64.718)"/><path class="c" d="M625.985,549.759H540.558a7.8,7.8,0,0,1-7.786-7.787V496.464a7.8,7.8,0,0,1,7.786-7.787h85.427a7.8,7.8,0,0,1,7.786,7.787v45.508a7.8,7.8,0,0,1-7.787,7.787Zm-85.427-59.081a5.793,5.793,0,0,0-5.786,5.787v45.508a5.793,5.793,0,0,0,5.786,5.787h85.427a5.793,5.793,0,0,0,5.786-5.787V496.464a5.793,5.793,0,0,0-5.786-5.787Z" transform="translate(-95 -64.718)"/><path class="c" d="M755.985,549.759H670.558a7.8,7.8,0,0,1-7.786-7.787V496.464a7.8,7.8,0,0,1,7.786-7.787h85.427a7.8,7.8,0,0,1,7.786,7.787v45.508A7.8,7.8,0,0,1,755.985,549.759Zm-85.427-59.081a5.793,5.793,0,0,0-5.786,5.787v45.508a5.793,5.793,0,0,0,5.786,5.787h85.427a5.793,5.793,0,0,0,5.786-5.787V496.464a5.793,5.793,0,0,0-5.786-5.787Z" transform="translate(-95 -64.718)"/><path class="c" d="M495.985,680.759H410.558a7.8,7.8,0,0,1-7.786-7.787V627.464a7.8,7.8,0,0,1,7.786-7.787h85.427a7.8,7.8,0,0,1,7.786,7.787v45.508a7.8,7.8,0,0,1-7.787,7.787Zm-85.427-59.081a5.793,5.793,0,0,0-5.786,5.787v45.508a5.793,5.793,0,0,0,5.786,5.787h85.427a5.793,5.793,0,0,0,5.786-5.787V627.464a5.793,5.793,0,0,0-5.786-5.787Z" transform="translate(-95 -64.718)"/><path class="c" d="M625.985,680.759H540.558a7.8,7.8,0,0,1-7.786-7.787V627.464a7.8,7.8,0,0,1,7.786-7.787h85.427a7.8,7.8,0,0,1,7.786,7.787v45.508a7.8,7.8,0,0,1-7.787,7.787Zm-85.427-59.081a5.793,5.793,0,0,0-5.786,5.787v45.508a5.793,5.793,0,0,0,5.786,5.787h85.427a5.793,5.793,0,0,0,5.786-5.787V627.464a5.793,5.793,0,0,0-5.786-5.787Z" transform="translate(-95 -64.718)"/><path class="c" d="M755.985,680.759H670.558a7.8,7.8,0,0,1-7.786-7.787V627.464a7.8,7.8,0,0,1,7.786-7.787h85.427a7.8,7.8,0,0,1,7.786,7.787v45.508A7.8,7.8,0,0,1,755.985,680.759Zm-85.427-59.081a5.793,5.793,0,0,0-5.786,5.787v45.508a5.793,5.793,0,0,0,5.786,5.787h85.427a5.793,5.793,0,0,0,5.786-5.787V627.464a5.793,5.793,0,0,0-5.786-5.787Z" transform="translate(-95 -64.718)"/><path class="c" d="M1104,835.218H96a1,1,0,0,1,0-2H1104a1,1,0,0,1,0,2Z" transform="translate(-95 -64.718)"/><path class="c" d="M633.772,738.429a8.607,8.607,0,0,0-8.5-8.71h-42v103.5h50.5Z" transform="translate(-95 -64.718)"/><path class="c" d="M584.272,832.218h-52.5v-93.5a9.511,9.511,0,0,1,9.5-9.5h43Zm-50.5-2h48.5v-99h-41a7.508,7.508,0,0,0-7.5,7.5Z" transform="translate(-95 -64.718)"/><circle class="c" cx="3" cy="3" r="3" transform="translate(440.272 717)"/></g></svg>