<svg xmlns="http://www.w3.org/2000/svg" width="30" height="30" viewBox="0 0 41.21 39.874"><defs><style>.a{fill:#505255;}</style></defs><path class="a" d="M5.135,32.862,10,28.114a12.326,12.326,0,0,0,10.19,5.425,13.059,13.059,0,0,0,6.954-1.8c.41.427,1.489,1.57,1.682,1.771a15.388,15.388,0,0,1-18.174-1.143c.024-.048-3.075,3.018-3.107,3.051a3.9,3.9,0,0,1-3.727,5.022,3.89,3.89,0,1,1,1.312-7.574ZM33.7,12.547a15.406,15.406,0,0,1,2.31,8.371A15.342,15.342,0,0,1,32.1,30.657c.024.024,1.916,2.028,1.94,2.052a2.424,2.424,0,1,1-2.028,1.94c-2-2.141-3.574-3.8-3.574-3.8a13.173,13.173,0,0,0,5.183-10,13.015,13.015,0,0,0-1.7-6.616l1.779-1.69ZM8.371,4.193a2.4,2.4,0,0,1,.612,2.117l3.694,3.871A13.145,13.145,0,0,0,10.842,11.9,13.01,13.01,0,0,0,9.176,26.81L7.4,28.54a15.238,15.238,0,0,1-2.238-8.427,15.438,15.438,0,0,1,3.823-9.747L6.954,8.241A2.414,2.414,0,1,1,8.371,4.193ZM37.419.563A3.881,3.881,0,0,1,41.21,4.45a3.839,3.839,0,0,1-3.791,3.839,5.132,5.132,0,0,1-1.28-.145L31.076,12.95A12.979,12.979,0,0,0,13.924,9.344l-1.7-1.771A15.358,15.358,0,0,1,30.4,8.732l3.308-3.107a3.837,3.837,0,0,1-.177-1.167A3.923,3.923,0,0,1,37.419.563ZM20.661,9.046a10.389,10.389,0,0,1,1.32.089,11.468,11.468,0,1,1-1.32-.089Zm-4.749,9.61a4.726,4.726,0,0,0,2.608,4.2l-.885,4.161h5.932l-.885-4.161a4.69,4.69,0,1,0-6.769-4.2ZM20.6,12.8" transform="translate(0 -0.563)"/></svg>